<svg xmlns="http://www.w3.org/2000/svg" viewBox="1271.67 1357.52 291.17 257.76" role="img" aria-label="Extracted hand candidate 23">
  <path d="M 1431.66 1584.73 C 1445.35 1589.74 1470.67 1592.84 1485.87 1594.38 C 1488.16 1594.99 1498.08 1597.28 1508.65 1594.21 C 1519.38 1591.11 1530.78 1582.44 1535.53 1560.92 C 1544.84 1518.89 1486.99 1512.27 1477.01 1511.29 C 1467.04 1510.29 1447.78 1499.53 1447.78 1499.53 C 1447.78 1499.53 1442.25 1511.74 1436.8 1526.77 L 1432.78 1536.78 L 1432.75 1538.65 C 1431.24 1543.4 1429.87 1548.15 1428.81 1552.74 C 1428.5 1554.05 1428.19 1555.33 1427.94 1556.59 C 1424.87 1570.45 1424.67 1582.19 1431.66 1584.73 Z" fill="#ffb680" fill-rule="nonzero"/>
  <path d="M 1431.66 1584.73 C 1445.35 1589.74 1470.67 1592.84 1485.87 1594.38 C 1488.16 1594.99 1498.08 1597.28 1508.65 1594.21 C 1451.64 1589.09 1434.14 1566.74 1428.81 1552.74 C 1428.5 1554.05 1428.19 1555.33 1427.94 1556.59 C 1424.87 1570.45 1424.67 1582.19 1431.66 1584.73 Z" fill="#f48e5b" fill-rule="nonzero"/>
  <path d="M 1438.52 1565.77 L 1445.97 1501.26 C 1446.83 1493.8 1442.99 1486.58 1436.32 1483.13 L 1393.68 1461.06 C 1390.12 1459.22 1386.05 1458.61 1382.12 1459.33 C 1382.12 1459.33 1376.91 1468.25 1351.1 1472.13 C 1331.63 1475.06 1314.81 1471.38 1313.93 1492.33 C 1313.19 1509.9 1318.48 1562.6 1318.48 1562.6 C 1319.03 1571.98 1333.72 1580.13 1343.12 1580.37 L 1420.1 1581.77 C 1429.13 1580.98 1437.17 1573.38 1438.52 1565.77 Z" fill="#ffb680" fill-rule="nonzero"/>
  <path d="M 1441.86 1534.53 C 1441.86 1534.53 1396.2 1539.49 1372.63 1558.05 C 1349.06 1576.61 1350.56 1580.39 1350.56 1580.39 C 1350.56 1580.39 1420.49 1589.26 1432.78 1576.96 C 1445.06 1564.66 1441.86 1534.53 1441.86 1534.53 Z" fill="#ffb680" fill-rule="nonzero"/>
  <path d="M 1371.86 1462.89 C 1371.86 1462.89 1370.49 1495.52 1389.38 1513.81 C 1408.26 1532.1 1433.32 1533.34 1433.32 1533.34 L 1374.73 1464.41 L 1371.86 1462.89 Z" fill="#f48e5b" fill-rule="nonzero"/>
  <path d="M 1437.1 1480.24 C 1437.1 1480.24 1414.18 1458.52 1403.25 1449.5 C 1391.3 1439.63 1366.61 1436.69 1371.57 1460.76 C 1376.53 1484.83 1382.1 1500.5 1407.08 1523.04 C 1428.61 1542.47 1440.19 1538.98 1446.13 1532.65 C 1454.24 1524.01 1459.21 1501.27 1437.1 1480.24 Z" fill="#ffb680" fill-rule="nonzero"/>
  <path d="M 1374.33 1460.34 C 1374.33 1460.34 1334.38 1427.91 1346.42 1401.72 C 1358.46 1375.52 1362.74 1413.49 1369.81 1419.47 C 1376.88 1425.45 1398.82 1437.54 1403.4 1453.73 C 1407.99 1469.93 1374.33 1460.34 1374.33 1460.34 Z" fill="#ffb680" fill-rule="nonzero"/>
  <path d="M 1332.14 1552.84 C 1333.05 1553.04 1333.41 1553.28 1332.8 1553.58 C 1332.64 1553.66 1332.37 1553.73 1332.03 1553.78 C 1331.94 1553.5 1331.88 1553.35 1331.88 1553.35 C 1331.88 1553.35 1331.98 1553.18 1332.14 1552.84 Z" fill="#d68265" fill-rule="nonzero"/>
  <path d="M 1436.12 1579.57 C 1424.31 1594.53 1368 1585.75 1368 1585.75 L 1355.79 1585.05 C 1355.79 1585.05 1350.36 1580.5 1350.41 1579.95 C 1362.42 1581.34 1422.11 1587.8 1433.09 1576.81 L 1436.12 1579.57 Z" fill="#f48e5b" fill-rule="nonzero"/>
  <path d="M 1334.21 1578.65 C 1334.21 1578.65 1344.47 1580.3 1350.04 1580.63 C 1353.61 1580.84 1354.68 1584.51 1354.68 1584.51 L 1334.68 1581.3 L 1334.21 1578.65 Z" fill="#d68265" fill-rule="nonzero"/>
  <path d="M 1350.59 1477.38 C 1350.59 1477.38 1373.15 1478.5 1372.56 1493.34 C 1371.96 1508.71 1343.22 1506.87 1338.91 1506.87 C 1334.6 1506.87 1310.22 1508.96 1303.51 1505.32 C 1290.89 1498.46 1289.67 1482.78 1301.81 1477.64 C 1314.83 1472.12 1325.3 1473.54 1350.59 1477.38 Z" fill="#f48e5b" fill-rule="nonzero"/>
  <path d="M 1342.4 1478.53 C 1342.4 1478.53 1369.41 1478.9 1368.6 1491.05 C 1367.79 1503.21 1351.38 1500.02 1347.07 1500.02 C 1342.75 1500.02 1309.13 1500.62 1301.86 1498.29 C 1294.59 1495.96 1294.62 1480.46 1305.09 1477.61 C 1318.15 1474.05 1329.66 1477.89 1342.4 1478.53 Z" fill="#ffb680" fill-rule="nonzero"/>
  <path d="M 1316.36 1572.53 C 1316.36 1572.53 1315.46 1587.59 1340.64 1587.32 C 1365.82 1587.05 1368.75 1584.55 1368.75 1584.55 L 1338.47 1568.91 L 1316.36 1572.53 Z" fill="#f48e5b" fill-rule="nonzero"/>
  <path d="M 1316.24 1570.46 C 1316.24 1570.46 1316.27 1583.83 1339.98 1583.85 C 1363.7 1583.87 1368.64 1581.71 1368.64 1581.71 L 1337.75 1567.22 L 1316.24 1570.46 Z" fill="#ffb680" fill-rule="nonzero"/>
  <path d="M 1315.58 1573.76 C 1314.92 1563.9 1323.3 1560.41 1332.87 1558.87 C 1342.43 1557.32 1359.51 1557.25 1366.41 1557.69 C 1373.32 1558.13 1377.36 1564.37 1375.65 1569.91 C 1373.71 1576.16 1368.5 1578.03 1362.85 1578.82 C 1357.46 1579.58 1350.58 1580.15 1347.6 1580.51 C 1343.35 1581.02 1339.58 1581.77 1333.22 1582.96 C 1325.33 1584.43 1316.3 1584.46 1315.58 1573.76 Z" fill="#f48e5b" fill-rule="nonzero"/>
  <path d="M 1317.55 1573.26 C 1316.51 1565.27 1324.57 1561.8 1333.51 1560.81 C 1342.44 1559.82 1356.58 1559.38 1363.1 1559.92 C 1369.61 1560.46 1371.59 1566.18 1370.21 1570.61 C 1368.66 1575.61 1365.92 1576.4 1360.64 1576.89 C 1355.6 1577.36 1349.15 1577.64 1346.37 1577.85 C 1342.39 1578.15 1338.88 1578.65 1332.94 1579.44 C 1325.59 1580.42 1318.68 1581.91 1317.55 1573.26 Z" fill="#ffb680" fill-rule="nonzero"/>
  <path d="M 1331.28 1535.45 C 1331.28 1535.45 1308.61 1533.3 1301.96 1542.58 C 1295.73 1551.27 1301.24 1561.83 1305.57 1563.91 C 1311.36 1566.7 1330.94 1561.06 1333.49 1560.75 C 1345.36 1559.32 1349.86 1559.83 1360.52 1558.01 C 1365.36 1557.18 1375.09 1555.83 1375.4 1546 C 1375.64 1538.23 1369.58 1531.75 1353.12 1532.68 C 1341.7 1533.33 1339.4 1534.34 1331.28 1535.45 Z" fill="#f48e5b" fill-rule="nonzero"/>
  <path d="M 1330.24 1534.96 C 1330.24 1534.96 1304.39 1536.25 1302.37 1546.43 C 1300.75 1554.62 1303.17 1558.53 1307 1560.86 C 1312.63 1564.29 1328.08 1558.46 1332.43 1557.98 C 1343.51 1556.77 1342.07 1557.62 1352 1556.05 C 1356.52 1555.34 1370.53 1553.32 1371.1 1546.14 C 1371.67 1539.09 1366.91 1533.3 1351.54 1534.02 C 1340.88 1534.51 1337.82 1534.01 1330.24 1534.96 Z" fill="#ffb680" fill-rule="nonzero"/>
  <path d="M 1345.96 1506.39 C 1345.96 1506.39 1375.04 1504.03 1374.74 1520.96 C 1374.48 1535.89 1344.99 1534.44 1340.69 1534.73 C 1335.97 1535.06 1316.22 1537.47 1313.49 1537.24 C 1307.15 1536.7 1295.03 1534.74 1294.26 1522.63 C 1293.8 1515.42 1300.11 1508.41 1308.08 1506.61 C 1322.51 1503.34 1333.2 1506.63 1345.96 1506.39 Z" fill="#f48e5b" fill-rule="nonzero"/>
  <path d="M 1342.93 1508.09 C 1342.93 1508.09 1369.89 1506.61 1369.92 1518.79 C 1369.95 1530.97 1352.11 1529.04 1347.81 1529.33 C 1343.5 1529.62 1311.25 1532.42 1303.84 1530.59 C 1296.42 1528.77 1292.46 1514.69 1305.64 1509.74 C 1318.31 1504.97 1330.17 1508.33 1342.93 1508.09 Z" fill="#ffb680" fill-rule="nonzero"/>
</svg>
