<svg xmlns="http://www.w3.org/2000/svg" viewBox="732.995 738.674 359.985 191.558" data-rotated-ccw="90" role="img" aria-label="Extracted hand candidate 15">
  <g transform="rotate(-90 912.987 834.453)">
    <path d="M 909.505 774.3 C 908.291 764.297 905.129 756.514 903.232 751.458 C 901.334 746.401 898.086 732.468 897.225 729.297 C 894.442 719.038 891.616 708.139 891.695 707.628 C 889.672 699.317 883.225 672.46 871.732 678.295 C 860.957 683.766 866.269 707.069 868.478 715.117 L 868.876 715.943 C 868.876 715.943 875.413 738.991 877.043 745.804 C 879.069 754.273 878.905 759.853 880.172 766.3 C 881.438 772.747 883.797 779.979 884.841 785.119 C 886.269 792.149 888.843 807.189 889.512 813.394 C 892.075 814.925 898.877 816.979 905.149 815.44 C 912.644 813.601 915.576 810.484 918.727 806.884 C 917.089 800.588 909.922 777.737 909.505 774.3 Z" fill="#ffb680" fill-rule="nonzero"/>
      <path d="M 873.417 677.662 C 883.857 675.101 889.773 699.732 891.695 707.628 C 891.616 708.139 894.442 719.038 897.225 729.297 C 898.086 732.468 901.334 746.401 903.232 751.458 C 905.129 756.514 908.291 764.297 909.505 774.3 C 909.855 777.187 914.955 798.727 918.048 808.197 L 918.198 808.75 C 919.098 808.014 919.937 807.036 920.617 806.03 C 917.311 796.064 912.25 776.931 911.918 774.197 C 910.704 764.194 907.542 756.411 905.645 751.355 C 903.747 746.299 900.499 732.366 899.639 729.195 C 896.856 718.935 894.029 708.036 894.109 707.525 C 892.035 697.622 884.468 673.379 873.417 677.662 Z" fill="#f48e5b" fill-rule="nonzero"/>
      <path d="M 954.484 922.142 L 925.422 917.991 C 941.32 919.69 954.484 922.142 954.484 922.142 Z" fill="#f5bc8f" fill-rule="nonzero"/>
      <path d="M 867.889 926.846 L 870.569 926.846 L 912.924 916.893 L 914.743 916.465 L 925.422 917.991 L 954.484 922.142 C 954.484 922.142 943.432 937.255 935.861 937.729 C 928.292 938.202 908.893 932.997 908.893 932.997 C 908.893 932.997 903.192 933.586 896.733 934.254 L 896.768 934.259 C 896.768 934.259 870.903 938.99 870.903 951.607 C 870.903 952.206 870.893 952.763 870.874 953.286 C 871.151 968.118 871.516 981.257 871.516 981.257 C 871.516 981.257 865.542 948.453 867.889 926.846 Z" fill="#f48e5b" fill-rule="nonzero"/>
      <path d="M 954.49 922.137 L 946.777 981.243 C 946.777 981.243 946.19 982.556 944.653 984.401 C 940.936 988.844 931.602 996.445 911.034 996.445 C 879.203 996.445 871.518 981.243 871.518 981.243 C 871.518 981.243 871.154 968.108 870.875 953.297 C 870.903 952.766 870.903 952.207 870.903 951.62 C 870.903 938.988 896.781 934.265 896.781 934.265 C 903.209 933.595 908.882 933.008 908.882 933.008 C 908.882 933.008 928.304 938.206 935.849 937.731 C 937.862 937.591 940.153 936.417 942.389 934.74 C 948.565 930.241 954.49 922.137 954.49 922.137 Z" fill="#ffb680" fill-rule="nonzero"/>
      <path d="M 954.49 922.137 L 946.777 981.243 C 946.777 981.243 946.19 982.556 944.653 984.401 C 946.777 955.421 944.681 941.447 942.389 934.74 C 948.565 930.241 954.49 922.137 954.49 922.137 Z" fill="#f48e5b" fill-rule="nonzero"/>
      <path d="M 923.078 753.812 C 924.164 749.81 925.747 738.493 927.005 730.29 C 927.897 724.475 929.276 715.25 929.957 707.984 C 932.51 695.697 937.405 681.506 947.523 685.096 C 958.295 688.918 950.174 725.842 950.174 725.842 C 950.049 741.598 947.727 748.488 948.779 760.798 C 949.591 770.319 945.198 780.512 945.028 785.735 C 944.406 804.847 944.011 811.008 944.011 811.008 C 944.011 811.008 935.431 813.368 927.993 811.624 C 921.26 810.045 914.713 804.44 913.532 803.391 C 915.721 797.79 916.852 794.494 918.331 787.031 C 919.808 779.577 920.159 772.251 920.727 765.672 C 921.019 762.31 921.718 758.825 923.078 753.812 Z" fill="#f48e5b" fill-rule="nonzero"/>
      <path d="M 925.971 752.976 C 927.046 748.972 928.654 737.66 929.926 729.46 C 930.829 723.647 932.226 714.426 932.937 707.166 C 935.485 694.878 941.032 681.734 948.729 685.53 C 958.586 690.393 952.219 724.839 952.219 724.839 C 951.977 740.571 949.692 747.468 950.606 759.751 C 951.313 769.252 947.013 779.462 946.809 784.679 C 946.063 803.767 945.635 809.921 945.635 809.921 C 945.635 809.921 937.374 812.344 930.242 810.661 C 923.787 809.137 917.54 803.591 916.414 802.553 C 918.561 796.944 919.673 793.644 921.152 786.182 C 922.629 778.727 923.023 771.409 923.62 764.836 C 923.926 761.478 924.624 757.992 925.971 752.976 Z" fill="#ffb680" fill-rule="nonzero"/>
      <path d="M 883.606 930.123 L 937.41 923.295 C 950.86 921.588 961.854 911.742 965.03 898.561 L 973.922 861.645 C 974.469 859.374 974.567 857.035 974.228 854.755 C 973.867 852.324 972.759 850.071 971.226 848.151 C 968.477 844.704 962.473 836.016 955.26 818.499 C 948.197 801.346 940.585 796.356 927.858 795.441 C 926.324 795.33 924.779 795.49 923.29 795.874 L 857.357 812.885 C 848.376 815.658 843.975 831.871 845.985 841.052 L 862.798 915.197 C 862.94 915.824 863.108 916.446 863.346 917.043 C 866.499 924.897 874.994 930.362 882.288 930.234 C 882.729 930.226 883.168 930.178 883.606 930.123 Z" fill="#ffa96e" fill-rule="nonzero"/>
      <path d="M 962.531 838.852 C 962.531 838.852 931.161 847.947 919.839 871.676 C 908.517 895.405 909.847 917.133 909.847 917.133 L 962.006 842.061 L 962.531 838.852 Z" fill="#f48e5b" fill-rule="nonzero"/>
      <path d="M 966.862 906.225 C 966.862 906.225 980.149 877.585 985.222 864.345 C 990.766 849.873 985.69 825.534 964.456 837.901 C 943.223 850.268 930.14 860.542 916.73 891.399 C 905.172 917.997 912.163 927.86 920.059 931.478 C 930.833 936.412 953.968 933.883 966.862 906.225 Z" fill="#ffb680" fill-rule="nonzero"/>
      <path d="M 914.062 926.104 C 914.062 926.104 898.011 882.372 874.355 863.92 C 850.698 845.468 847.387 847.834 847.387 847.834 C 847.387 847.834 855.482 917.857 870.359 926.846 C 885.237 935.836 914.062 926.104 914.062 926.104 Z" fill="#ffb680" fill-rule="nonzero"/>
      <path d="M 870.096 823.812 C 870.116 824.743 869.973 825.151 869.533 824.631 C 869.418 824.494 869.289 824.248 869.152 823.93 C 869.4 823.778 869.533 823.685 869.533 823.685 C 869.533 823.685 869.73 823.743 870.096 823.812 Z" fill="#d68265" fill-rule="nonzero"/>
      <path d="M 847.698 825.834 C 848.51 832.852 846.376 842.348 847.387 847.834 C 848.913 859.826 857.768 919.287 871.061 927.32 L 869.011 928.581 C 851.663 920.696 846.706 866.502 846.706 866.502 L 844.721 853.267 C 844.721 853.267 842.378 825.953 847.698 825.834 Z" fill="#f48e5b" fill-rule="nonzero"/>
      <path d="M 845.405 808.353 C 854.813 802.882 864.394 814.214 870.587 822.902 C 876.779 831.591 882.246 845.862 885.182 852.891 C 888.118 859.919 883.929 866.951 877.63 867.966 C 870.517 869.112 866.134 864.876 862.597 859.691 C 859.216 854.734 855.296 848.23 853.487 845.465 C 850.907 841.521 848.278 837.332 844.615 831.219 C 839.389 822.495 835.208 814.283 845.405 808.353 Z" fill="#f48e5b" fill-rule="nonzero"/>
      <path d="M 846.721 810.99 C 854.091 806.065 860.707 813.615 866.045 821.948 C 871.383 830.282 878.715 844.019 881.361 850.71 C 884.007 857.401 879.328 862.14 874.288 862.943 C 868.597 863.849 866.476 861.536 863.418 856.568 C 860.494 851.817 857.076 845.597 855.508 842.949 C 853.272 839.172 851.061 835.951 847.386 830.48 C 842.833 823.702 838.732 816.328 846.721 810.99 Z" fill="#ffb680" fill-rule="nonzero"/>
      <path d="M 891.88 807.673 C 891.88 807.673 885.601 786.669 874.139 783.418 C 863.413 780.373 854.898 789.323 854.336 794.224 C 853.586 800.778 865.919 817.787 867.104 820.147 C 872.62 831.14 873.672 835.668 879.144 845.35 C 881.632 849.75 886.333 858.697 896.139 855.626 C 903.891 853.198 908.191 845.116 901.585 829.51 C 897.003 818.687 895.783 815.154 891.88 807.673 Z" fill="#f48e5b" fill-rule="nonzero"/>
      <path d="M 889.515 808.122 C 889.515 808.122 878.713 784.008 868.748 785.976 C 860.736 787.559 858.1 791.355 857.417 795.889 C 856.411 802.558 867.446 815.039 869.497 819.001 C 874.72 829.086 873.418 828.029 878.539 836.892 C 880.865 840.919 887.912 853.485 894.627 851.291 C 901.211 849.14 904.679 842.4 898.305 828.044 C 893.885 818.087 893.195 814.981 889.515 808.122 Z" fill="#ffb680" fill-rule="nonzero"/>
      <path d="M 927.765 807.624 C 921.36 813.255 921.462 826.456 928.69 833.393 C 935.917 840.331 944.795 848.461 948.243 852.608 C 951.692 856.756 973.648 874.096 979.065 856.575 C 984.482 839.055 984.329 835.628 975.973 829.783 C 967.617 823.937 959.913 813.654 950.521 807.621 C 936.6 798.68 927.765 807.624 927.765 807.624 Z" fill="#f48e5b" fill-rule="nonzero"/>
      <path d="M 935.557 812.349 C 929.7 817.497 926.007 826.724 932.615 833.067 C 939.224 839.411 947.342 846.845 950.495 850.637 C 953.648 854.43 974.95 874.148 979.903 858.127 C 984.856 842.107 984.166 836.234 976.525 830.889 C 968.885 825.544 957.978 817.48 950.975 810.054 C 943.973 802.628 935.557 812.349 935.557 812.349 Z" fill="#ffb680" fill-rule="nonzero"/>
      <path d="M 910.349 808.214 C 893.738 814.861 882.165 827.275 887.906 835.043 C 893.647 842.811 909.39 846.332 938.375 830.46 C 967.36 814.588 937.974 801.452 926.293 802.881 C 914.612 804.309 910.349 808.214 910.349 808.214 Z" fill="#f48e5b" fill-rule="nonzero"/>
      <path d="M 911.607 809.676 C 896.904 815.56 886.661 826.546 891.742 833.422 C 896.823 840.298 915.505 842.308 941.16 828.26 C 966.815 814.211 942.07 802.077 931.731 803.341 C 921.392 804.606 911.607 809.676 911.607 809.676 Z" fill="#ffb680" fill-rule="nonzero"/>
  </g>
</svg>
