<svg xmlns="http://www.w3.org/2000/svg" viewBox="1283.837 728.272 360.216 212.13" data-rotated-ccw="90" role="img" aria-label="Extracted hand candidate 13">
  <g transform="rotate(-90 1463.945 834.337)">
    <path d="M 1488.88 776.852 C 1489.18 766.78 1487.22 758.613 1486.09 753.329 C 1484.97 748.046 1483.84 733.784 1483.47 730.52 C 1482.25 719.96 1481.08 708.761 1481.24 708.268 C 1480.48 699.748 1478.12 672.229 1465.88 676.281 C 1454.41 680.08 1456.18 703.915 1457.16 712.203 L 1457.43 713.08 C 1457.43 713.08 1460.45 736.845 1461.04 743.825 C 1461.78 752.503 1460.79 757.995 1461.08 764.559 C 1461.36 771.123 1462.62 778.626 1462.88 783.864 C 1463.24 791.029 1463.54 806.285 1463.27 812.52 C 1465.58 814.417 1472 817.464 1478.43 816.88 C 1486.11 816.181 1489.48 813.537 1493.13 810.449 C 1492.45 803.978 1488.78 780.314 1488.88 776.852 Z" fill="#ffb680" fill-rule="nonzero"/>
      <path d="M 1467.64 675.907 C 1478.35 674.935 1480.52 700.173 1481.24 708.268 C 1481.08 708.761 1482.25 719.96 1483.47 730.52 C 1483.84 733.784 1484.97 748.046 1486.09 753.329 C 1487.22 758.613 1489.18 766.78 1488.88 776.852 C 1488.8 779.76 1490.62 801.82 1492.27 811.646 L 1492.33 812.214 C 1493.33 811.622 1494.31 810.78 1495.13 809.887 C 1493.35 799.539 1491.2 779.865 1491.29 777.112 C 1491.58 767.039 1489.62 758.871 1488.5 753.588 C 1487.37 748.305 1486.25 734.043 1485.87 730.779 C 1484.65 720.219 1483.48 709.02 1483.64 708.526 C 1483.07 698.425 1479.21 673.323 1467.64 675.907 Z" fill="#f48e5b" fill-rule="nonzero"/>
      <path d="M 1456.17 787.912 C 1454.37 778.425 1450.84 771.187 1448.7 766.474 C 1446.56 761.76 1442.56 748.646 1441.54 745.67 C 1438.21 736.038 1434.81 725.798 1434.85 725.304 C 1432.38 717.487 1424.49 692.221 1413.88 698.539 C 1403.93 704.464 1410.5 726.405 1413.13 733.959 L 1413.57 734.724 C 1413.57 734.724 1421.3 756.342 1423.3 762.752 C 1425.78 770.72 1425.98 776.066 1427.61 782.149 C 1429.23 788.233 1431.96 794.996 1433.28 799.844 C 1435.1 806.475 1438.53 820.692 1439.57 826.582 C 1442.12 827.881 1448.76 829.408 1454.65 827.533 C 1461.7 825.292 1464.31 822.122 1467.09 818.477 C 1465.12 812.562 1456.79 791.173 1456.17 787.912 Z" fill="#ffb680" fill-rule="nonzero"/>
      <path d="M 1415.45 697.825 C 1425.27 694.706 1432.51 717.877 1434.85 725.304 C 1434.81 725.798 1438.21 736.038 1441.54 745.67 C 1442.56 748.646 1446.56 761.76 1448.7 766.474 C 1450.84 771.187 1454.37 778.425 1456.17 787.912 C 1456.69 790.651 1462.96 810.92 1466.52 819.776 L 1466.7 820.295 C 1467.52 819.534 1468.25 818.545 1468.84 817.539 C 1465.04 808.221 1458.97 790.252 1458.47 787.659 C 1456.67 778.172 1453.15 770.933 1451.01 766.22 C 1448.87 761.507 1444.86 748.393 1443.84 745.416 C 1440.52 735.785 1437.11 725.544 1437.16 725.05 C 1434.54 715.715 1425.74 693.019 1415.45 697.825 Z" fill="#f48e5b" fill-rule="nonzero"/>
      <path d="M 1430.93 807.05 C 1428.08 799.502 1424.13 794.053 1421.69 790.483 C 1419.25 786.912 1414.06 776.696 1412.79 774.394 C 1408.66 766.946 1404.38 759.009 1404.35 758.597 C 1401.18 752.519 1391.04 732.863 1383.22 739.596 C 1375.88 745.909 1384.46 763.019 1387.72 768.856 L 1388.19 769.423 C 1388.19 769.423 1397.67 786.1 1400.24 791.088 C 1403.44 797.288 1404.37 801.659 1406.59 806.431 C 1408.81 811.204 1412.02 816.378 1413.82 820.176 C 1416.27 825.372 1421.15 836.578 1422.85 841.276 C 1425.14 841.977 1430.82 842.275 1435.4 839.88 C 1440.88 837.018 1442.57 834.034 1444.33 830.632 C 1441.85 826.048 1431.91 809.644 1430.93 807.05 Z" fill="#ffb680" fill-rule="nonzero"/>
      <path d="M 1384.41 738.782 C 1392.04 734.796 1401.34 752.823 1404.35 758.597 C 1404.38 759.009 1408.66 766.946 1412.79 774.394 C 1414.06 776.696 1419.25 786.912 1421.69 790.483 C 1424.13 794.053 1428.08 799.502 1430.93 807.05 C 1431.76 809.229 1439.84 825.008 1444.05 831.783 L 1444.28 832.184 C 1444.84 831.44 1445.3 830.519 1445.64 829.607 C 1441.16 822.487 1433.57 808.573 1432.79 806.509 C 1429.94 798.961 1425.99 793.512 1423.55 789.942 C 1421.11 786.372 1415.92 776.155 1414.64 773.854 C 1410.52 766.406 1406.24 758.468 1406.2 758.055 C 1402.7 750.75 1392.18 733.339 1384.41 738.782 Z" fill="#f48e5b" fill-rule="nonzero"/>
      <path d="M 1525.88 922.142 L 1496.82 917.991 C 1512.72 919.69 1525.88 922.142 1525.88 922.142 Z" fill="#f5bc8f" fill-rule="nonzero"/>
      <path d="M 1439.29 926.846 L 1441.97 926.846 L 1484.32 916.893 L 1486.14 916.465 L 1496.82 917.991 L 1525.88 922.142 C 1525.88 922.142 1514.83 937.255 1507.26 937.729 C 1499.69 938.202 1480.29 932.997 1480.29 932.997 C 1480.29 932.997 1474.59 933.586 1468.13 934.254 L 1468.17 934.259 C 1468.17 934.259 1442.3 938.99 1442.3 951.607 C 1442.3 952.206 1442.29 952.763 1442.27 953.286 C 1442.55 968.118 1442.91 981.257 1442.91 981.257 C 1442.91 981.257 1436.94 948.453 1439.29 926.846 Z" fill="#f48e5b" fill-rule="nonzero"/>
      <path d="M 1525.89 922.137 L 1518.18 981.243 C 1518.18 981.243 1517.59 982.556 1516.05 984.401 C 1512.33 988.844 1503 996.445 1482.43 996.445 C 1450.6 996.445 1442.92 981.243 1442.92 981.243 C 1442.92 981.243 1442.55 968.108 1442.27 953.297 C 1442.3 952.766 1442.3 952.207 1442.3 951.62 C 1442.3 938.988 1468.18 934.265 1468.18 934.265 C 1474.61 933.595 1480.28 933.008 1480.28 933.008 C 1480.28 933.008 1499.7 938.206 1507.25 937.731 C 1509.26 937.591 1511.55 936.417 1513.79 934.74 C 1519.96 930.241 1525.89 922.137 1525.89 922.137 Z" fill="#ffb680" fill-rule="nonzero"/>
      <path d="M 1525.89 922.137 L 1518.18 981.243 C 1518.18 981.243 1517.59 982.556 1516.05 984.401 C 1518.18 955.421 1516.08 941.447 1513.79 934.74 C 1519.96 930.241 1525.89 922.137 1525.89 922.137 Z" fill="#f48e5b" fill-rule="nonzero"/>
      <path d="M 1501.24 755.495 C 1502.53 751.557 1504.71 740.338 1506.39 732.212 C 1507.59 726.452 1509.45 717.312 1510.51 710.091 C 1513.7 697.955 1519.34 684.041 1529.25 688.156 C 1539.81 692.538 1529.76 728.986 1529.76 728.986 C 1528.81 744.713 1526.13 751.471 1526.54 763.819 C 1526.85 773.37 1521.93 783.318 1521.48 788.526 C 1519.86 807.579 1519.14 813.71 1519.14 813.71 C 1519.14 813.71 1510.45 815.617 1503.11 813.486 C 1496.47 811.556 1490.23 805.615 1489.1 804.506 C 1491.58 799.027 1492.89 795.795 1494.75 788.42 C 1496.62 781.054 1497.35 773.756 1498.27 767.216 C 1498.73 763.874 1499.62 760.43 1501.24 755.495 Z" fill="#f48e5b" fill-rule="nonzero"/>
      <path d="M 1504.17 754.813 C 1505.45 750.871 1507.65 739.659 1509.35 731.536 C 1510.56 725.779 1512.44 716.643 1513.53 709.431 C 1516.72 697.294 1522.95 684.458 1530.43 688.653 C 1540.02 694.026 1531.86 728.09 1531.86 728.09 C 1530.79 743.789 1528.15 750.556 1528.42 762.87 C 1528.62 772.395 1523.79 782.366 1523.32 787.565 C 1521.57 806.587 1520.82 812.71 1520.82 812.71 C 1520.82 812.71 1512.44 814.697 1505.41 812.642 C 1499.04 810.782 1493.1 804.916 1492.03 803.82 C 1494.46 798.331 1495.75 795.095 1497.62 787.72 C 1499.48 780.353 1500.26 773.065 1501.2 766.533 C 1501.68 763.195 1502.56 759.751 1504.17 754.813 Z" fill="#ffb680" fill-rule="nonzero"/>
      <path d="M 1455 930.123 L 1508.81 923.295 C 1522.26 921.588 1533.25 911.742 1536.43 898.561 L 1545.32 861.645 C 1545.87 859.374 1545.96 857.035 1545.63 854.755 C 1545.27 852.324 1544.16 850.071 1542.62 848.151 C 1539.88 844.704 1533.87 836.016 1526.66 818.499 C 1519.6 801.346 1511.98 796.356 1499.26 795.441 C 1497.72 795.33 1496.18 795.49 1494.69 795.874 L 1428.75 812.885 C 1419.77 815.658 1415.37 831.871 1417.38 841.052 L 1434.2 915.197 C 1434.34 915.824 1434.51 916.446 1434.74 917.043 C 1437.9 924.897 1446.39 930.362 1453.69 930.234 C 1454.13 930.226 1454.57 930.178 1455 930.123 Z" fill="#ffa96e" fill-rule="nonzero"/>
      <path d="M 1522.34 833.351 C 1522.34 833.351 1492.92 847.535 1485.7 872.817 C 1478.48 898.098 1483.4 919.303 1483.4 919.303 L 1522.35 836.602 L 1522.34 833.351 Z" fill="#f48e5b" fill-rule="nonzero"/>
      <path d="M 1537.81 899.066 C 1537.81 899.066 1546.15 868.615 1548.95 854.716 C 1552.01 839.523 1542.96 816.367 1524.08 832.093 C 1505.2 847.819 1494 860.125 1485.91 892.783 C 1478.94 920.932 1487.47 929.496 1495.86 931.749 C 1507.3 934.823 1529.7 928.482 1537.81 899.066 Z" fill="#ffb680" fill-rule="nonzero"/>
      <path d="M 1485.46 926.104 C 1485.46 926.104 1469.41 882.372 1445.75 863.92 C 1422.1 845.468 1418.78 847.834 1418.78 847.834 C 1418.78 847.834 1426.88 917.857 1441.76 926.846 C 1456.63 935.836 1485.46 926.104 1485.46 926.104 Z" fill="#ffb680" fill-rule="nonzero"/>
      <path d="M 1441.49 823.812 C 1441.51 824.743 1441.37 825.151 1440.93 824.631 C 1440.82 824.494 1440.69 824.248 1440.55 823.93 C 1440.8 823.778 1440.93 823.685 1440.93 823.685 C 1440.93 823.685 1441.13 823.743 1441.49 823.812 Z" fill="#d68265" fill-rule="nonzero"/>
      <path d="M 1419.1 825.834 C 1419.91 832.852 1417.77 842.348 1418.78 847.834 C 1420.31 859.826 1429.17 919.287 1442.46 927.32 L 1440.41 928.581 C 1423.06 920.696 1418.1 866.502 1418.1 866.502 L 1416.12 853.267 C 1416.12 853.267 1413.78 825.953 1419.1 825.834 Z" fill="#f48e5b" fill-rule="nonzero"/>
      <path d="M 1482.86 808.339 C 1477.48 814.956 1479.78 827.957 1488.06 833.596 C 1496.34 839.234 1506.45 845.775 1510.54 849.292 C 1514.63 852.808 1539.16 866.255 1541.59 848.078 C 1544.02 829.901 1543.3 826.548 1534.08 822.173 C 1524.87 817.798 1515.57 808.939 1505.3 804.552 C 1490.09 798.05 1482.86 808.339 1482.86 808.339 Z" fill="#f48e5b" fill-rule="nonzero"/>
      <path d="M 1491.33 811.702 C 1486.41 817.753 1484.3 827.465 1491.88 832.621 C 1499.45 837.777 1508.69 843.758 1512.43 846.973 C 1516.17 850.189 1540.45 866.09 1542.67 849.469 C 1544.89 832.848 1543.24 827.172 1534.81 823.172 C 1526.39 819.171 1514.29 813.033 1506.15 806.875 C 1498.01 800.718 1491.33 811.702 1491.33 811.702 Z" fill="#ffb680" fill-rule="nonzero"/>
      <path d="M 1468.59 805.979 C 1451.82 812.22 1439.95 824.347 1445.5 832.253 C 1451.05 840.159 1466.7 844.062 1496.06 828.901 C 1525.43 813.741 1496.37 799.893 1484.66 801.036 C 1472.94 802.179 1468.59 805.979 1468.59 805.979 Z" fill="#f48e5b" fill-rule="nonzero"/>
      <path d="M 1469.81 807.471 C 1454.97 812.995 1444.46 823.729 1449.37 830.726 C 1454.28 837.723 1472.91 840.188 1498.9 826.77 C 1524.89 813.351 1500.45 800.617 1490.08 801.629 C 1479.72 802.641 1469.81 807.471 1469.81 807.471 Z" fill="#ffb680" fill-rule="nonzero"/>
  </g>
</svg>
