<svg xmlns="http://www.w3.org/2000/svg" viewBox="448.086 718.034 352.979 193.861" data-rotated-ccw="90" role="img" aria-label="Extracted hand candidate 11">
  <g transform="rotate(-90 624.575 814.965)">
    <path d="M 663.834 899.151 L 634.771 895 C 650.669 896.699 663.834 899.151 663.834 899.151 Z" fill="#f5bc8f" fill-rule="nonzero"/>
      <path d="M 577.238 903.855 L 579.919 903.855 L 622.274 893.901 L 624.093 893.474 L 634.771 895 L 663.834 899.151 C 663.834 899.151 652.781 914.264 645.211 914.737 C 637.641 915.21 618.243 910.006 618.243 910.006 C 618.243 910.006 612.542 910.595 606.083 911.263 L 606.118 911.268 C 606.118 911.268 580.253 915.999 580.253 928.616 C 580.253 929.215 580.243 929.772 580.224 930.295 C 580.5 945.126 580.865 958.265 580.865 958.265 C 580.865 958.265 574.891 925.462 577.238 903.855 Z" fill="#f48e5b" fill-rule="nonzero"/>
      <path d="M 663.84 899.145 L 656.127 958.252 C 656.127 958.252 655.539 959.565 654.003 961.409 C 650.286 965.853 640.952 973.454 620.383 973.454 C 588.553 973.454 580.867 958.252 580.867 958.252 C 580.867 958.252 580.504 945.117 580.224 930.305 C 580.252 929.774 580.252 929.215 580.252 928.629 C 580.252 915.997 606.13 911.274 606.13 911.274 C 612.558 910.603 618.231 910.016 618.231 910.016 C 618.231 910.016 637.654 915.214 645.199 914.739 C 647.211 914.6 649.503 913.426 651.739 911.749 C 657.915 907.25 663.84 899.145 663.84 899.145 Z" fill="#ffb680" fill-rule="nonzero"/>
      <path d="M 663.84 899.145 L 656.127 958.252 C 656.127 958.252 655.539 959.565 654.003 961.409 C 656.127 932.429 654.031 918.456 651.739 911.749 C 657.915 907.25 663.84 899.145 663.84 899.145 Z" fill="#f48e5b" fill-rule="nonzero"/>
      <path d="M 623.76 730.668 C 624.048 726.532 623.401 715.122 623.04 706.832 C 622.785 700.954 622.344 691.637 621.6 684.377 C 621.715 671.828 623.758 656.957 634.381 658.511 C 645.69 660.166 644.903 697.965 644.903 697.965 C 647.843 713.444 646.905 720.653 650.329 732.524 C 652.977 741.706 650.648 752.558 651.497 757.715 C 654.603 776.583 655.413 782.703 655.413 782.703 C 655.413 782.703 647.456 786.686 639.821 786.422 C 632.909 786.182 625.397 781.956 624.035 781.157 C 625.093 775.237 625.562 771.784 625.562 764.176 C 625.562 756.577 624.481 749.323 623.76 742.758 C 623.393 739.404 623.401 735.849 623.76 730.668 Z" fill="#f48e5b" fill-rule="nonzero"/>
      <path d="M 626.435 729.286 C 626.712 725.149 626.09 713.741 625.744 705.449 C 625.5 699.572 625.077 690.255 624.363 682.995 C 624.474 670.447 627.36 656.475 635.648 658.703 C 646.263 661.556 646.713 696.583 646.713 696.583 C 649.534 712.062 648.633 719.271 651.918 731.142 C 654.459 740.324 652.225 751.176 653.039 756.333 C 656.018 775.202 656.795 781.321 656.795 781.321 C 656.795 781.321 649.162 785.305 641.839 785.04 C 635.211 784.8 628.005 780.574 626.698 779.775 C 627.714 773.855 628.164 770.402 628.164 762.795 C 628.164 755.195 627.127 747.94 626.435 741.377 C 626.083 738.023 626.09 734.468 626.435 729.286 Z" fill="#ffb680" fill-rule="nonzero"/>
      <path d="M 592.956 907.132 L 646.759 900.304 C 660.21 898.597 671.204 888.751 674.379 875.57 L 683.272 838.654 C 683.819 836.383 683.916 834.044 683.578 831.764 C 683.217 829.333 682.109 827.08 680.576 825.159 C 677.827 821.713 671.823 813.025 664.609 795.508 C 657.546 778.355 649.934 773.365 637.208 772.45 C 635.673 772.339 634.129 772.499 632.639 772.883 L 566.706 789.894 C 557.726 792.667 553.324 808.88 555.335 818.061 L 572.147 892.206 C 572.29 892.832 572.457 893.455 572.696 894.052 C 575.849 901.905 584.343 907.371 591.637 907.242 C 592.078 907.234 592.518 907.187 592.956 907.132 Z" fill="#ffa96e" fill-rule="nonzero"/>
      <path d="M 676.28 817.903 C 676.28 817.903 644.266 824.37 631.018 847.08 C 617.77 869.79 617.296 891.554 617.296 891.554 L 675.492 821.057 L 676.28 817.903 Z" fill="#f48e5b" fill-rule="nonzero"/>
      <path d="M 675.018 885.403 C 675.018 885.403 690.632 857.962 696.783 845.187 C 703.506 831.223 700.463 806.548 678.278 817.115 C 656.094 827.682 642.205 836.837 626.286 866.478 C 612.566 892.027 618.716 902.436 626.286 906.694 C 636.614 912.504 659.879 911.899 675.018 885.403 Z" fill="#ffb680" fill-rule="nonzero"/>
      <path d="M 623.412 903.113 C 623.412 903.113 607.361 859.381 583.705 840.929 C 560.048 822.477 556.736 824.842 556.736 824.842 C 556.736 824.842 564.832 894.866 579.709 903.855 C 594.586 912.845 623.412 903.113 623.412 903.113 Z" fill="#ffb680" fill-rule="nonzero"/>
      <path d="M 579.445 800.821 C 579.466 801.752 579.322 802.16 578.883 801.64 C 578.767 801.503 578.639 801.257 578.502 800.938 C 578.75 800.786 578.883 800.694 578.883 800.694 C 578.883 800.694 579.079 800.752 579.445 800.821 Z" fill="#d68265" fill-rule="nonzero"/>
      <path d="M 557.047 802.843 C 557.859 809.861 555.725 819.357 556.736 824.842 C 558.262 836.835 567.117 896.296 580.411 904.329 L 578.361 905.59 C 561.013 897.705 556.056 843.511 556.056 843.511 L 554.071 830.276 C 554.071 830.276 551.728 802.962 557.047 802.843 Z" fill="#f48e5b" fill-rule="nonzero"/>
      <path d="M 556.699 780.471 C 566.898 776.672 574.422 789.462 579.055 799.074 C 583.686 808.685 586.657 823.676 588.361 831.1 C 590.065 838.524 584.746 844.746 578.365 844.679 C 571.161 844.604 567.559 839.687 564.95 833.978 C 562.457 828.52 559.696 821.447 558.381 818.416 C 556.506 814.092 554.625 809.517 552.049 802.872 C 548.376 793.39 545.645 784.589 556.699 780.471 Z" fill="#f48e5b" fill-rule="nonzero"/>
      <path d="M 557.55 783.292 C 565.647 779.686 570.889 788.248 574.74 797.364 C 578.59 806.482 583.489 821.262 584.965 828.304 C 586.44 835.346 581.026 839.225 575.922 839.163 C 570.16 839.092 568.461 836.454 566.288 831.039 C 564.212 825.862 561.896 819.153 560.799 816.277 C 559.235 812.176 557.601 808.628 554.906 802.613 C 551.566 795.162 548.773 787.201 557.55 783.292 Z" fill="#ffb680" fill-rule="nonzero"/>
      <path d="M 602.618 787.669 C 602.618 787.669 599.987 765.906 589.241 760.76 C 579.185 755.944 569.277 763.323 567.893 768.057 C 566.044 774.39 575.32 793.242 576.088 795.769 C 579.663 807.537 579.933 812.177 583.687 822.646 C 585.394 827.404 588.512 837.017 598.697 835.651 C 606.748 834.571 612.354 827.333 608.486 810.835 C 605.803 799.392 605.199 795.703 602.618 787.669 Z" fill="#f48e5b" fill-rule="nonzero"/>
      <path d="M 600.212 787.712 C 600.212 787.712 593.649 762.116 583.494 762.369 C 575.33 762.573 572.089 765.868 570.648 770.22 C 568.528 776.623 577.29 790.792 578.641 795.044 C 582.08 805.868 580.976 804.606 584.522 814.207 C 586.134 818.571 590.951 832.148 597.941 831.123 C 604.794 830.117 609.353 824.062 605.502 808.834 C 602.831 798.273 602.677 795.094 600.212 787.712 Z" fill="#ffb680" fill-rule="nonzero"/>
      <path d="M 633.036 795.51 C 633.036 795.51 641.797 823.933 624.876 827.368 C 609.963 830.396 604.909 800.734 603.664 796.516 C 602.301 791.897 595.541 772.767 595.17 770.006 C 594.308 763.577 596.282 750.416 605.472 747.643 C 612.524 745.515 620.911 750.332 624.463 757.866 C 630.894 771.509 629.981 782.869 633.036 795.51 Z" fill="#f48e5b" fill-rule="nonzero"/>
      <path d="M 630.673 792.87 C 630.673 792.87 638.094 819.379 625.979 822.091 C 613.864 824.803 611.854 806.631 610.612 802.412 C 609.37 798.193 599.476 766.707 599.656 758.93 C 599.837 751.153 612.975 744.107 620.812 756.128 C 628.347 767.688 627.618 780.229 630.673 792.87 Z" fill="#ffb680" fill-rule="nonzero"/>
      <path d="M 644.219 783.904 C 637.37 788.985 636.379 802.15 643.007 809.661 C 649.635 817.173 657.81 826.011 660.903 830.429 C 663.996 834.848 684.441 853.946 691.29 836.934 C 698.139 819.922 698.27 816.495 690.427 809.978 C 682.584 803.46 675.757 792.575 666.897 785.785 C 653.765 775.722 644.219 783.904 644.219 783.904 Z" fill="#f48e5b" fill-rule="nonzero"/>
      <path d="M 651.593 789.257 C 645.33 793.904 640.886 802.793 646.946 809.661 C 653.007 816.53 660.482 824.611 663.31 828.651 C 666.138 832.692 685.734 854.106 691.997 838.55 C 698.26 822.995 698.058 817.086 690.886 811.126 C 683.714 805.166 673.512 796.227 667.148 788.247 C 660.785 780.267 651.593 789.257 651.593 789.257 Z" fill="#ffb680" fill-rule="nonzero"/>
      <path d="M 626.815 783.05 C 609.71 788.299 597.149 799.712 602.227 807.929 C 607.305 816.146 622.703 820.958 652.902 807.54 C 683.102 794.122 654.904 778.599 643.145 779.055 C 631.385 779.512 626.815 783.05 626.815 783.05 Z" fill="#f48e5b" fill-rule="nonzero"/>
      <path d="M 627.946 784.611 C 612.807 789.257 601.689 799.358 606.184 806.631 C 610.678 813.904 629.13 817.454 655.86 805.578 C 682.589 793.702 658.934 779.56 648.526 779.964 C 638.118 780.368 627.946 784.611 627.946 784.611 Z" fill="#ffb680" fill-rule="nonzero"/>
  </g>
</svg>
