<svg xmlns="http://www.w3.org/2000/svg" viewBox="1567.717 696.662 360.216 275.35" data-rotated-ccw="90" role="img" aria-label="Extracted hand candidate 14">
  <g transform="rotate(-90 1747.825 834.337)">
    <path d="M 1741.15 776.852 C 1741.45 766.78 1739.48 758.613 1738.36 753.329 C 1737.24 748.046 1736.11 733.784 1735.73 730.52 C 1734.52 719.96 1733.35 708.761 1733.51 708.268 C 1732.75 699.748 1730.39 672.229 1718.15 676.281 C 1706.68 680.08 1708.45 703.915 1709.43 712.203 L 1709.7 713.08 C 1709.7 713.08 1712.72 736.845 1713.31 743.825 C 1714.05 752.503 1713.05 757.995 1713.34 764.559 C 1713.63 771.123 1714.88 778.626 1715.15 783.864 C 1715.51 791.029 1715.81 806.285 1715.54 812.52 C 1717.85 814.417 1724.26 817.464 1730.7 816.88 C 1738.38 816.181 1741.75 813.537 1745.4 810.449 C 1744.72 803.978 1741.05 780.314 1741.15 776.852 Z" fill="#ffb680" fill-rule="nonzero"/>
      <path d="M 1719.91 675.907 C 1730.62 674.935 1732.79 700.173 1733.51 708.268 C 1733.35 708.761 1734.52 719.96 1735.73 730.52 C 1736.11 733.784 1737.24 748.046 1738.36 753.329 C 1739.48 758.613 1741.45 766.78 1741.15 776.852 C 1741.07 779.76 1742.89 801.82 1744.53 811.646 L 1744.6 812.214 C 1745.6 811.622 1746.57 810.78 1747.4 809.887 C 1745.62 799.539 1743.47 779.865 1743.55 777.112 C 1743.85 767.039 1741.88 758.871 1740.76 753.588 C 1739.64 748.305 1738.51 734.043 1738.14 730.779 C 1736.92 720.219 1735.75 709.02 1735.91 708.526 C 1735.34 698.425 1731.48 673.323 1719.91 675.907 Z" fill="#f48e5b" fill-rule="nonzero"/>
      <path d="M 1708.44 787.912 C 1706.64 778.425 1703.11 771.187 1700.97 766.474 C 1698.83 761.76 1694.83 748.646 1693.8 745.67 C 1690.48 736.038 1687.08 725.798 1687.12 725.304 C 1684.65 717.487 1676.76 692.221 1666.15 698.539 C 1656.19 704.464 1662.77 726.405 1665.4 733.959 L 1665.84 734.724 C 1665.84 734.724 1673.57 756.342 1675.57 762.752 C 1678.05 770.72 1678.25 776.066 1679.88 782.149 C 1681.5 788.233 1684.22 794.996 1685.55 799.844 C 1687.37 806.475 1690.8 820.692 1691.84 826.582 C 1694.39 827.881 1701.02 829.408 1706.92 827.533 C 1713.97 825.292 1716.57 822.122 1719.35 818.477 C 1717.38 812.562 1709.06 791.173 1708.44 787.912 Z" fill="#ffb680" fill-rule="nonzero"/>
      <path d="M 1667.72 697.825 C 1677.53 694.706 1684.78 717.877 1687.12 725.304 C 1687.08 725.798 1690.48 736.038 1693.8 745.67 C 1694.83 748.646 1698.83 761.76 1700.97 766.474 C 1703.11 771.187 1706.64 778.425 1708.44 787.912 C 1708.96 790.651 1715.22 810.92 1718.79 819.776 L 1718.97 820.295 C 1719.78 819.534 1720.52 818.545 1721.11 817.539 C 1717.31 808.221 1711.23 790.252 1710.74 787.659 C 1708.94 778.172 1705.41 770.933 1703.27 766.22 C 1701.13 761.507 1697.13 748.393 1696.1 745.416 C 1692.78 735.785 1689.38 725.544 1689.42 725.05 C 1686.8 715.715 1678.01 693.019 1667.72 697.825 Z" fill="#f48e5b" fill-rule="nonzero"/>
      <path d="M 1683.2 807.05 C 1680.35 799.502 1676.4 794.053 1673.96 790.483 C 1671.52 786.912 1666.33 776.696 1665.05 774.394 C 1660.93 766.946 1656.65 759.009 1656.61 758.597 C 1653.45 752.519 1643.31 732.863 1635.48 739.596 C 1628.15 745.909 1636.73 763.019 1639.99 768.856 L 1640.45 769.423 C 1640.45 769.423 1649.94 786.1 1652.51 791.088 C 1655.7 797.288 1656.64 801.659 1658.86 806.431 C 1661.08 811.204 1664.29 816.378 1666.09 820.176 C 1668.54 825.372 1673.41 836.578 1675.12 841.276 C 1677.41 841.977 1683.09 842.275 1687.67 839.88 C 1693.15 837.018 1694.84 834.034 1696.6 830.632 C 1694.12 826.048 1684.18 809.644 1683.2 807.05 Z" fill="#ffb680" fill-rule="nonzero"/>
      <path d="M 1636.67 738.782 C 1644.3 734.796 1653.61 752.823 1656.61 758.597 C 1656.65 759.009 1660.93 766.946 1665.05 774.394 C 1666.33 776.696 1671.52 786.912 1673.96 790.483 C 1676.4 794.053 1680.35 799.502 1683.2 807.05 C 1684.03 809.229 1692.11 825.008 1696.32 831.783 L 1696.54 832.184 C 1697.1 831.44 1697.57 830.519 1697.91 829.607 C 1693.43 822.487 1685.84 808.573 1685.06 806.509 C 1682.2 798.961 1678.26 793.512 1675.82 789.942 C 1673.37 786.372 1668.19 776.155 1666.91 773.854 C 1662.79 766.406 1658.51 758.468 1658.47 758.055 C 1654.97 750.75 1644.45 733.339 1636.67 738.782 Z" fill="#f48e5b" fill-rule="nonzero"/>
      <path d="M 1778.15 922.142 L 1749.09 917.991 C 1764.99 919.69 1778.15 922.142 1778.15 922.142 Z" fill="#f5bc8f" fill-rule="nonzero"/>
      <path d="M 1691.55 926.846 L 1694.24 926.846 L 1736.59 916.893 L 1738.41 916.465 L 1749.09 917.991 L 1778.15 922.142 C 1778.15 922.142 1767.1 937.255 1759.53 937.729 C 1751.96 938.202 1732.56 932.997 1732.56 932.997 C 1732.56 932.997 1726.86 933.586 1720.4 934.254 L 1720.43 934.259 C 1720.43 934.259 1694.57 938.99 1694.57 951.607 C 1694.57 952.206 1694.56 952.763 1694.54 953.286 C 1694.82 968.118 1695.18 981.257 1695.18 981.257 C 1695.18 981.257 1689.21 948.453 1691.55 926.846 Z" fill="#f48e5b" fill-rule="nonzero"/>
      <path d="M 1778.16 922.137 L 1770.44 981.243 C 1770.44 981.243 1769.86 982.556 1768.32 984.401 C 1764.6 988.844 1755.27 996.445 1734.7 996.445 C 1702.87 996.445 1695.18 981.243 1695.18 981.243 C 1695.18 981.243 1694.82 968.108 1694.54 953.297 C 1694.57 952.766 1694.57 952.207 1694.57 951.62 C 1694.57 938.988 1720.45 934.265 1720.45 934.265 C 1726.87 933.595 1732.55 933.008 1732.55 933.008 C 1732.55 933.008 1751.97 938.206 1759.52 937.731 C 1761.53 937.591 1763.82 936.417 1766.06 934.74 C 1772.23 930.241 1778.16 922.137 1778.16 922.137 Z" fill="#ffb680" fill-rule="nonzero"/>
      <path d="M 1778.16 922.137 L 1770.44 981.243 C 1770.44 981.243 1769.86 982.556 1768.32 984.401 C 1770.44 955.421 1768.35 941.447 1766.06 934.74 C 1772.23 930.241 1778.16 922.137 1778.16 922.137 Z" fill="#f48e5b" fill-rule="nonzero"/>
      <path d="M 1753.5 755.495 C 1754.8 751.557 1756.97 740.338 1758.66 732.212 C 1759.86 726.452 1761.72 717.312 1762.78 710.091 C 1765.97 697.955 1771.6 684.041 1781.52 688.156 C 1792.08 692.538 1782.03 728.986 1782.03 728.986 C 1781.08 744.713 1778.4 751.471 1778.8 763.819 C 1779.12 773.37 1774.19 783.318 1773.75 788.526 C 1772.13 807.579 1771.41 813.71 1771.41 813.71 C 1771.41 813.71 1762.72 815.617 1755.38 813.486 C 1748.74 811.556 1742.5 805.615 1741.37 804.506 C 1743.85 799.027 1745.15 795.795 1747.02 788.42 C 1748.89 781.054 1749.62 773.756 1750.54 767.216 C 1751 763.874 1751.88 760.43 1753.5 755.495 Z" fill="#f48e5b" fill-rule="nonzero"/>
      <path d="M 1756.44 754.813 C 1757.72 750.871 1759.92 739.659 1761.62 731.536 C 1762.83 725.779 1764.7 716.643 1765.8 709.431 C 1768.98 697.294 1775.21 684.458 1782.7 688.653 C 1792.29 694.026 1784.12 728.09 1784.12 728.09 C 1783.06 743.789 1780.41 750.556 1780.68 762.87 C 1780.89 772.395 1776.06 782.366 1775.58 787.565 C 1773.84 806.587 1773.09 812.71 1773.09 812.71 C 1773.09 812.71 1764.71 814.697 1757.68 812.642 C 1751.31 810.782 1745.36 804.916 1744.29 803.82 C 1746.73 798.331 1748.02 795.095 1749.88 787.72 C 1751.75 780.353 1752.53 773.065 1753.47 766.533 C 1753.95 763.195 1754.83 759.751 1756.44 754.813 Z" fill="#ffb680" fill-rule="nonzero"/>
      <path d="M 1707.27 930.123 L 1761.08 923.295 C 1774.53 921.588 1785.52 911.742 1788.7 898.561 L 1797.59 861.645 C 1798.14 859.374 1798.23 857.035 1797.89 854.755 C 1797.53 852.324 1796.43 850.071 1794.89 848.151 C 1792.14 844.704 1786.14 836.016 1778.93 818.499 C 1771.86 801.346 1764.25 796.356 1751.52 795.441 C 1749.99 795.33 1748.45 795.49 1746.96 795.874 L 1681.02 812.885 C 1672.04 815.658 1667.64 831.871 1669.65 841.052 L 1686.46 915.197 C 1686.61 915.824 1686.77 916.446 1687.01 917.043 C 1690.17 924.897 1698.66 930.362 1705.95 930.234 C 1706.39 930.226 1706.83 930.178 1707.27 930.123 Z" fill="#ffa96e" fill-rule="nonzero"/>
      <path d="M 1789.95 835.261 C 1789.95 835.261 1758.44 843.86 1746.75 867.408 C 1735.05 890.956 1736.04 912.702 1736.04 912.702 L 1789.38 838.46 L 1789.95 835.261 Z" fill="#f48e5b" fill-rule="nonzero"/>
      <path d="M 1793.22 902.693 C 1793.22 902.693 1806.96 874.266 1812.24 861.107 C 1818.01 846.724 1813.32 822.309 1791.89 834.34 C 1770.47 846.371 1757.22 856.437 1743.33 887.08 C 1731.35 913.492 1738.19 923.464 1746.03 927.206 C 1756.72 932.309 1779.89 930.144 1793.22 902.693 Z" fill="#ffb680" fill-rule="nonzero"/>
      <path d="M 1737.73 926.104 C 1737.73 926.104 1721.68 882.372 1698.02 863.92 C 1674.36 845.468 1671.05 847.834 1671.05 847.834 C 1671.05 847.834 1679.15 917.857 1694.03 926.846 C 1708.9 935.836 1737.73 926.104 1737.73 926.104 Z" fill="#ffb680" fill-rule="nonzero"/>
      <path d="M 1693.76 823.812 C 1693.78 824.743 1693.64 825.151 1693.2 824.631 C 1693.08 824.494 1692.96 824.248 1692.82 823.93 C 1693.07 823.778 1693.2 823.685 1693.2 823.685 C 1693.2 823.685 1693.4 823.743 1693.76 823.812 Z" fill="#d68265" fill-rule="nonzero"/>
      <path d="M 1671.36 825.834 C 1672.18 832.852 1670.04 842.348 1671.05 847.834 C 1672.58 859.826 1681.43 919.287 1694.73 927.32 L 1692.68 928.581 C 1675.33 920.696 1670.37 866.502 1670.37 866.502 L 1668.39 853.267 C 1668.39 853.267 1666.04 825.953 1671.36 825.834 Z" fill="#f48e5b" fill-rule="nonzero"/>
      <path d="M 1828.3 810.61 C 1822.84 805.259 1811.05 806.228 1805.33 813.15 C 1799.61 820.073 1792.93 828.55 1789.45 831.908 C 1785.97 835.267 1771.93 856.048 1787.95 859.725 C 1803.98 863.402 1807.03 863.037 1811.7 855.179 C 1816.37 847.32 1821.9 839.515 1826.66 830.718 C 1833.73 817.679 1828.3 810.61 1828.3 810.61 Z" fill="#f48e5b" fill-rule="nonzero"/>
      <path d="M 1824.85 813.849 C 1819.85 808.956 1811.11 810.309 1805.88 816.638 C 1800.65 822.968 1794.54 830.719 1791.36 833.79 C 1788.18 836.861 1771.97 857.215 1786.62 860.578 C 1801.27 863.94 1806.48 862.932 1810.75 855.746 C 1815.02 848.561 1822.2 837.048 1826.16 828.799 C 1830.91 818.9 1824.85 813.849 1824.85 813.849 Z" fill="#ffb680" fill-rule="nonzero"/>
      <path d="M 1845.14 814.866 C 1857.56 805.58 1867.5 795.25 1860.96 790.034 C 1854.41 784.819 1837.41 782.748 1816.7 802.526 C 1796 822.304 1823.54 826.714 1832.99 822.901 C 1842.45 819.088 1845.14 814.866 1845.14 814.866 Z" fill="#f48e5b" fill-rule="nonzero"/>
      <path d="M 1843.76 813.924 C 1854.75 805.705 1864.31 795.751 1855.07 789.599 C 1848.9 785.494 1833.19 787.486 1814.86 804.991 C 1796.54 822.497 1819.97 827.109 1828.34 823.734 C 1836.71 820.36 1843.76 813.924 1843.76 813.924 Z" fill="#ffb680" fill-rule="nonzero"/>
  </g>
</svg>
