<svg xmlns="http://www.w3.org/2000/svg" viewBox="1002.082 740.777 360.216 187.12" data-rotated-ccw="90" role="img" aria-label="Extracted hand candidate 12">
  <g transform="rotate(-90 1182.19 834.337)">
    <path d="M 1191.59 776.852 C 1191.89 766.78 1189.92 758.613 1188.8 753.329 C 1187.68 748.046 1186.55 733.784 1186.18 730.52 C 1184.96 719.96 1183.79 708.761 1183.95 708.268 C 1183.19 699.748 1180.83 672.229 1168.59 676.281 C 1157.12 680.08 1158.89 703.915 1159.87 712.203 L 1160.14 713.08 C 1160.14 713.08 1163.16 736.845 1163.75 743.825 C 1164.49 752.503 1163.49 757.995 1163.78 764.559 C 1164.07 771.123 1165.32 778.626 1165.59 783.864 C 1165.95 791.029 1166.25 806.285 1165.98 812.52 C 1168.29 814.417 1174.7 817.464 1181.14 816.88 C 1188.82 816.181 1192.19 813.537 1195.84 810.449 C 1195.16 803.978 1191.49 780.314 1191.59 776.852 Z" fill="#ffb680" fill-rule="nonzero"/>
      <path d="M 1170.35 675.907 C 1181.06 674.935 1183.23 700.173 1183.95 708.268 C 1183.79 708.761 1184.96 719.96 1186.18 730.52 C 1186.55 733.784 1187.68 748.046 1188.8 753.329 C 1189.92 758.613 1191.89 766.78 1191.59 776.852 C 1191.51 779.76 1193.33 801.82 1194.97 811.646 L 1195.04 812.214 C 1196.04 811.622 1197.01 810.78 1197.84 809.887 C 1196.06 799.539 1193.91 779.865 1193.99 777.112 C 1194.29 767.039 1192.32 758.871 1191.2 753.588 C 1190.08 748.305 1188.95 734.043 1188.58 730.779 C 1187.36 720.219 1186.19 709.02 1186.35 708.526 C 1185.78 698.425 1181.92 673.323 1170.35 675.907 Z" fill="#f48e5b" fill-rule="nonzero"/>
      <path d="M 1158.88 787.912 C 1157.08 778.425 1153.55 771.187 1151.41 766.474 C 1149.27 761.76 1145.27 748.646 1144.24 745.67 C 1140.92 736.038 1137.52 725.798 1137.56 725.304 C 1135.09 717.487 1127.2 692.221 1116.59 698.539 C 1106.63 704.464 1113.21 726.405 1115.84 733.959 L 1116.28 734.724 C 1116.28 734.724 1124.01 756.342 1126.01 762.752 C 1128.49 770.72 1128.69 776.066 1130.32 782.149 C 1131.94 788.233 1134.66 794.996 1135.99 799.844 C 1137.81 806.475 1141.24 820.692 1142.28 826.582 C 1144.83 827.881 1151.46 829.408 1157.36 827.533 C 1164.41 825.292 1167.01 822.122 1169.8 818.477 C 1167.82 812.562 1159.5 791.173 1158.88 787.912 Z" fill="#ffb680" fill-rule="nonzero"/>
      <path d="M 1118.16 697.825 C 1127.97 694.706 1135.22 717.877 1137.56 725.304 C 1137.52 725.798 1140.92 736.038 1144.24 745.67 C 1145.27 748.646 1149.27 761.76 1151.41 766.474 C 1153.55 771.187 1157.08 778.425 1158.88 787.912 C 1159.4 790.651 1165.66 810.92 1169.23 819.776 L 1169.41 820.295 C 1170.22 819.534 1170.96 818.545 1171.55 817.539 C 1167.75 808.221 1161.67 790.252 1161.18 787.659 C 1159.38 778.172 1155.85 770.933 1153.71 766.22 C 1151.57 761.507 1147.57 748.393 1146.54 745.416 C 1143.22 735.785 1139.82 725.544 1139.86 725.05 C 1137.24 715.715 1128.45 693.019 1118.16 697.825 Z" fill="#f48e5b" fill-rule="nonzero"/>
      <path d="M 1231.62 922.142 L 1202.56 917.991 C 1218.46 919.69 1231.62 922.142 1231.62 922.142 Z" fill="#f5bc8f" fill-rule="nonzero"/>
      <path d="M 1145.03 926.846 L 1147.71 926.846 L 1190.06 916.893 L 1191.88 916.465 L 1202.56 917.991 L 1231.62 922.142 C 1231.62 922.142 1220.57 937.255 1213 937.729 C 1205.43 938.202 1186.03 932.997 1186.03 932.997 C 1186.03 932.997 1180.33 933.586 1173.87 934.254 L 1173.9 934.259 C 1173.9 934.259 1148.04 938.99 1148.04 951.607 C 1148.04 952.206 1148.03 952.763 1148.01 953.286 C 1148.29 968.118 1148.65 981.257 1148.65 981.257 C 1148.65 981.257 1142.68 948.453 1145.03 926.846 Z" fill="#f48e5b" fill-rule="nonzero"/>
      <path d="M 1231.63 922.137 L 1223.91 981.243 C 1223.91 981.243 1223.33 982.556 1221.79 984.401 C 1218.07 988.844 1208.74 996.445 1188.17 996.445 C 1156.34 996.445 1148.65 981.243 1148.65 981.243 C 1148.65 981.243 1148.29 968.108 1148.01 953.297 C 1148.04 952.766 1148.04 952.207 1148.04 951.62 C 1148.04 938.988 1173.92 934.265 1173.92 934.265 C 1180.35 933.595 1186.02 933.008 1186.02 933.008 C 1186.02 933.008 1205.44 938.206 1212.99 937.731 C 1215 937.591 1217.29 936.417 1219.53 934.74 C 1225.7 930.241 1231.63 922.137 1231.63 922.137 Z" fill="#ffb680" fill-rule="nonzero"/>
      <path d="M 1231.63 922.137 L 1223.91 981.243 C 1223.91 981.243 1223.33 982.556 1221.79 984.401 C 1223.91 955.421 1221.82 941.447 1219.53 934.74 C 1225.7 930.241 1231.63 922.137 1231.63 922.137 Z" fill="#f48e5b" fill-rule="nonzero"/>
      <path d="M 1202.13 755.495 C 1203.42 751.557 1205.6 740.338 1207.28 732.212 C 1208.48 726.452 1210.34 717.312 1211.4 710.091 C 1214.59 697.955 1220.23 684.041 1230.14 688.156 C 1240.7 692.538 1230.65 728.986 1230.65 728.986 C 1229.7 744.713 1227.02 751.471 1227.43 763.819 C 1227.74 773.37 1222.82 783.318 1222.37 788.526 C 1220.75 807.579 1220.03 813.71 1220.03 813.71 C 1220.03 813.71 1211.34 815.617 1204 813.486 C 1197.36 811.556 1191.12 805.615 1189.99 804.506 C 1192.47 799.027 1193.78 795.795 1195.64 788.42 C 1197.51 781.054 1198.24 773.756 1199.16 767.216 C 1199.62 763.874 1200.51 760.43 1202.13 755.495 Z" fill="#f48e5b" fill-rule="nonzero"/>
      <path d="M 1205.06 754.813 C 1206.34 750.871 1208.54 739.659 1210.24 731.536 C 1211.45 725.779 1213.33 716.643 1214.42 709.431 C 1217.61 697.294 1223.84 684.458 1231.32 688.653 C 1240.91 694.026 1232.75 728.09 1232.75 728.09 C 1231.68 743.789 1229.04 750.556 1229.31 762.87 C 1229.51 772.395 1224.68 782.366 1224.21 787.565 C 1222.46 806.587 1221.71 812.71 1221.71 812.71 C 1221.71 812.71 1213.33 814.697 1206.3 812.642 C 1199.93 810.782 1193.99 804.916 1192.92 803.82 C 1195.35 798.331 1196.64 795.095 1198.51 787.72 C 1200.37 780.353 1201.15 773.065 1202.09 766.533 C 1202.57 763.195 1203.45 759.751 1205.06 754.813 Z" fill="#ffb680" fill-rule="nonzero"/>
      <path d="M 1160.74 930.123 L 1214.55 923.295 C 1228 921.588 1238.99 911.742 1242.17 898.561 L 1251.06 861.645 C 1251.61 859.374 1251.7 857.035 1251.36 854.755 C 1251 852.324 1249.9 850.071 1248.36 848.151 C 1245.61 844.704 1239.61 836.016 1232.4 818.499 C 1225.33 801.346 1217.72 796.356 1204.99 795.441 C 1203.46 795.33 1201.92 795.49 1200.43 795.874 L 1134.49 812.885 C 1125.51 815.658 1121.11 831.871 1123.12 841.052 L 1139.93 915.197 C 1140.08 915.824 1140.24 916.446 1140.48 917.043 C 1143.64 924.897 1152.13 930.362 1159.42 930.234 C 1159.87 930.226 1160.3 930.178 1160.74 930.123 Z" fill="#ffa96e" fill-rule="nonzero"/>
      <path d="M 1228.08 833.351 C 1228.08 833.351 1198.65 847.535 1191.44 872.817 C 1184.22 898.098 1189.14 919.303 1189.14 919.303 L 1228.09 836.602 L 1228.08 833.351 Z" fill="#f48e5b" fill-rule="nonzero"/>
      <path d="M 1243.55 899.066 C 1243.55 899.066 1251.89 868.615 1254.69 854.716 C 1257.75 839.523 1248.7 816.367 1229.82 832.093 C 1210.93 847.819 1199.74 860.125 1191.65 892.783 C 1184.68 920.932 1193.21 929.496 1201.6 931.749 C 1213.04 934.823 1235.43 928.482 1243.55 899.066 Z" fill="#ffb680" fill-rule="nonzero"/>
      <path d="M 1191.2 926.104 C 1191.2 926.104 1175.15 882.372 1151.49 863.92 C 1127.83 845.468 1124.52 847.834 1124.52 847.834 C 1124.52 847.834 1132.62 917.857 1147.5 926.846 C 1162.37 935.836 1191.2 926.104 1191.2 926.104 Z" fill="#ffb680" fill-rule="nonzero"/>
      <path d="M 1147.23 823.812 C 1147.25 824.743 1147.11 825.151 1146.67 824.631 C 1146.55 824.494 1146.43 824.248 1146.29 823.93 C 1146.54 823.778 1146.67 823.685 1146.67 823.685 C 1146.67 823.685 1146.87 823.743 1147.23 823.812 Z" fill="#d68265" fill-rule="nonzero"/>
      <path d="M 1124.83 825.834 C 1125.65 832.852 1123.51 842.348 1124.52 847.834 C 1126.05 859.826 1134.9 919.287 1148.2 927.32 L 1146.15 928.581 C 1128.8 920.696 1123.84 866.502 1123.84 866.502 L 1121.86 853.267 C 1121.86 853.267 1119.51 825.953 1124.83 825.834 Z" fill="#f48e5b" fill-rule="nonzero"/>
      <path d="M 1123.28 807.95 C 1132.05 800.894 1143.6 810.993 1151.29 818.916 C 1158.97 826.839 1166.77 840.583 1170.87 847.314 C 1174.96 854.045 1171.77 861.887 1165.49 863.903 C 1158.39 866.179 1153.25 862.528 1148.83 857.776 C 1144.6 853.232 1139.58 847.19 1137.3 844.644 C 1134.05 841.012 1130.71 837.136 1126.02 831.454 C 1119.32 823.345 1113.77 815.597 1123.28 807.95 Z" fill="#f48e5b" fill-rule="nonzero"/>
      <path d="M 1125.03 810.441 C 1131.8 804.261 1139.74 810.954 1146.49 818.646 C 1153.25 826.339 1162.88 839.247 1166.62 845.678 C 1170.37 852.108 1166.32 857.681 1161.29 859.285 C 1155.61 861.096 1153.08 859.061 1149.18 854.455 C 1145.46 850.051 1140.99 844.221 1138.98 841.757 C 1136.11 838.242 1133.35 835.292 1128.74 830.268 C 1123.03 824.044 1117.69 817.141 1125.03 810.441 Z" fill="#ffb680" fill-rule="nonzero"/>
      <path d="M 1188.6 808.339 C 1183.22 814.956 1185.52 827.957 1193.8 833.596 C 1202.08 839.234 1212.18 845.775 1216.27 849.292 C 1220.36 852.808 1244.9 866.255 1247.33 848.078 C 1249.75 829.901 1249.03 826.548 1239.82 822.173 C 1230.61 817.798 1221.3 808.939 1211.04 804.552 C 1195.83 798.05 1188.6 808.339 1188.6 808.339 Z" fill="#f48e5b" fill-rule="nonzero"/>
      <path d="M 1197.07 811.702 C 1192.15 817.753 1190.04 827.465 1197.61 832.621 C 1205.19 837.777 1214.43 843.758 1218.17 846.973 C 1221.91 850.189 1246.19 866.09 1248.41 849.469 C 1250.63 832.848 1248.97 827.172 1240.55 823.172 C 1232.13 819.171 1220.03 813.033 1211.89 806.875 C 1203.75 800.718 1197.07 811.702 1197.07 811.702 Z" fill="#ffb680" fill-rule="nonzero"/>
      <path d="M 1171.53 811.816 C 1156.25 821.134 1146.9 835.298 1153.86 842.004 C 1160.81 848.709 1176.92 849.564 1202.86 829.093 C 1228.8 808.622 1197.64 800.555 1186.36 803.907 C 1175.08 807.258 1171.53 811.816 1171.53 811.816 Z" fill="#f48e5b" fill-rule="nonzero"/>
      <path d="M 1173.01 813.049 C 1159.49 821.296 1151.22 833.833 1157.37 839.768 C 1163.52 845.703 1182.28 844.578 1205.24 826.46 C 1228.2 808.341 1201.78 800.49 1191.8 803.456 C 1181.81 806.422 1173.01 813.049 1173.01 813.049 Z" fill="#ffb680" fill-rule="nonzero"/>
  </g>
</svg>
