<svg xmlns="http://www.w3.org/2000/svg" viewBox="1443.083 398 242.703 172.87" data-rotated-ccw="90" role="img" aria-label="Extracted hand candidate 6">
  <g transform="rotate(-90 1564.435 484.435)">
    <path d="M 1606.39 511.365 C 1606.39 511.365 1602.76 532.559 1601.97 542.565 C 1601.05 553.999 1598.82 572.122 1598.82 572.122 L 1523.43 570.48 C 1523.43 570.48 1520.13 537.676 1522.48 516.069 C 1524.68 495.843 1606.39 511.365 1606.39 511.365 Z" fill="#f48e5b" fill-rule="nonzero"/>
      <path d="M 1606.4 511.353 L 1598.83 572.13 C 1598.83 572.13 1598.24 575.204 1594.97 578.753 C 1590.45 583.644 1584.32 587.786 1563.98 587.786 C 1532.11 587.786 1523.37 570.487 1523.37 570.487 C 1523.37 570.487 1525.16 536.421 1525.16 516.076 C 1525.16 501.879 1564.65 505.177 1588.57 508.475 C 1598.94 509.928 1606.4 511.353 1606.4 511.353 Z" fill="#ffb680" fill-rule="nonzero"/>
      <path d="M 1606.4 511.353 L 1598.83 572.13 C 1598.83 572.13 1598.24 575.204 1594.97 578.753 C 1597.55 534.263 1593.99 515.238 1588.57 508.475 C 1598.94 509.928 1606.4 511.353 1606.4 511.353 Z" fill="#f48e5b" fill-rule="nonzero"/>
      <path d="M 1551.36 523.481 C 1551.36 523.481 1525.49 528.213 1525.49 540.83 C 1525.49 549.734 1523.17 562.862 1523.17 562.862 L 1524.86 522.22 L 1537.48 521.589 L 1551.36 523.481 Z" fill="#f48e5b" fill-rule="nonzero"/>
      <path d="M 1598.42 519.553 L 1617.36 486.539 C 1610.68 460.356 1630.74 421.649 1609.56 406.85 C 1588.38 392.05 1584.41 415.919 1584.41 415.919 C 1584.41 415.919 1580.58 388.635 1568.32 389.773 C 1556.06 390.912 1550.46 406.866 1550.46 406.866 C 1550.46 406.866 1541.57 395.466 1531.54 397.742 C 1521.5 400.019 1521.39 416.515 1521.39 416.515 C 1521.39 416.515 1511.96 413.583 1506.69 424.142 C 1503.04 431.455 1502.8 451.934 1502.8 451.934 C 1502.8 451.934 1496 506.527 1512.04 520.919 C 1525.28 532.801 1541.77 523.752 1556.26 524.89 C 1570.75 526.028 1582.81 527.522 1598.42 519.553 Z" fill="#f48e5b" fill-rule="nonzero"/>
      <path d="M 1600.68 516.576 L 1625.09 482.043 C 1619.91 451.603 1632.87 423.81 1616.68 401.973 C 1601.18 381.083 1586.19 407.287 1586.19 407.287 C 1586.19 407.287 1582.85 385.657 1570.59 386.796 C 1558.33 387.934 1551.24 402.966 1551.24 402.966 C 1551.24 402.966 1543.84 392.488 1533.8 394.765 C 1523.77 397.041 1520.95 413.388 1520.95 413.388 C 1520.95 413.388 1510.09 409.252 1504.82 419.81 C 1501.17 427.123 1506.53 449.452 1506.53 449.452 C 1506.53 449.452 1500.79 505.214 1515.28 515.46 C 1529.77 525.706 1544.95 514.298 1559.44 515.437 C 1573.93 516.576 1585.08 524.544 1600.68 516.576 Z" fill="#ffb680" fill-rule="nonzero"/>
      <path d="M 1610.35 418.544 C 1610.35 418.544 1606.66 441.611 1605.04 446.574 C 1603.42 451.537 1592.7 464.507 1588.17 463.183 C 1583.63 461.86 1580.72 459.544 1580.72 459.544 C 1580.72 459.544 1573.91 466.491 1568.08 467.154 C 1562.25 467.815 1551.56 463.514 1551.56 463.514 C 1551.56 463.514 1550.59 469.139 1544.11 469.47 C 1537.63 469.801 1530.18 464.176 1530.18 464.176 C 1530.18 464.176 1528.56 468.146 1524.02 468.146 C 1519.49 468.146 1511.39 459.213 1511.39 459.213 L 1521.57 470.646 C 1521.57 470.646 1537.31 475.756 1546.54 488.66 C 1550.58 494.315 1555.78 512.162 1557.23 515.46 C 1557.23 515.46 1556.34 483.012 1573.26 481.05 C 1590.48 479.055 1608.58 471.124 1608.58 471.124 C 1608.58 471.124 1615.7 460.206 1615.38 447.633 C 1615.06 435.06 1610.35 418.544 1610.35 418.544 Z" fill="#ffa96e" fill-rule="nonzero"/>
      <path d="M 1586.19 407.287 C 1586.19 407.287 1586.83 406.119 1588.56 403.784 C 1588.06 407.429 1588.1 409.936 1587.19 413.258 C 1584.59 422.786 1583.32 431.798 1582.21 441.217 C 1581.59 446.473 1582.9 452.925 1588.6 454.677 C 1593.85 456.288 1601.74 451.445 1603.74 447.271 C 1608.25 437.906 1608.83 427.578 1609.81 417.454 C 1609.89 416.64 1610.57 416.337 1610.95 417.627 C 1614.01 427.957 1611.22 440.706 1606.89 450.276 C 1603.43 457.932 1591.38 465.289 1583.43 458.227 C 1582.25 457.177 1581.3 456.041 1580.54 454.84 C 1580.53 454.899 1580.53 454.959 1580.52 455.018 C 1579.85 459.033 1577.35 465.419 1573.91 468.146 C 1570.44 470.9 1564.24 470.993 1560.31 470.132 C 1556.91 469.386 1554.72 468.405 1552.71 466.12 C 1552.05 468.764 1550.54 471.089 1547.94 472.446 C 1541.33 475.903 1533.94 471.621 1529.73 466.203 C 1528.61 469.368 1525.36 471.505 1521.57 470.646 C 1514.76 469.102 1510.53 459.746 1508.04 453.889 C 1507.47 452.552 1506.97 451.187 1506.5 449.808 C 1506.52 449.576 1506.53 449.452 1506.53 449.452 C 1506.53 449.452 1501.17 427.123 1504.82 419.81 C 1505.62 418.212 1506.55 416.956 1507.54 415.966 C 1505.92 424.404 1506.15 433.511 1507.98 441.576 C 1509.19 446.928 1511.25 452.102 1514.04 456.794 C 1516.16 460.354 1524.15 470.466 1527.29 462.288 C 1523.71 455.126 1523.65 446.626 1523.42 438.728 C 1523.25 432.737 1524.02 427.374 1522.89 421.494 C 1522.37 418.787 1521.74 416.103 1520.91 413.374 C 1520.93 413.383 1520.95 413.388 1520.95 413.388 C 1520.95 413.388 1521.24 411.678 1521.98 409.292 C 1526.62 419.597 1527.11 432.427 1527.69 443.196 C 1528.1 450.82 1529.12 458.971 1535.35 464.056 C 1537.83 466.071 1541.06 467.404 1544.26 466.947 C 1548.39 466.357 1549.23 463.579 1549.46 460.409 C 1548.34 457.136 1547.97 453.369 1548.32 450.281 C 1549.13 443.156 1550.26 436.116 1550.76 428.951 C 1551.36 420.301 1551.49 411.576 1551.17 402.875 C 1551.21 402.93 1551.24 402.966 1551.24 402.966 C 1551.24 402.966 1551.94 401.467 1553.3 399.382 C 1555 413.874 1555.01 428.467 1553.32 443.084 C 1552.71 448.367 1550.43 456.818 1554.48 461.198 C 1557.77 464.771 1559.61 464.848 1564.19 464.838 C 1567.33 464.831 1570.67 464.838 1573.91 461.198 C 1575.59 459.309 1576.14 455.714 1576.6 453.219 C 1577.41 448.727 1577.55 444.167 1578.06 439.639 C 1578.1 439.318 1578.24 439.076 1578.43 438.91 C 1579.07 434.774 1579.96 427.709 1580.8 423.998 C 1582.09 418.317 1586.19 407.287 1586.19 407.287 Z" fill="#f48e5b" fill-rule="nonzero"/>
      <path d="M 1625.24 493.25 C 1618.02 533.179 1575.19 532.647 1563.84 526.791 C 1552.49 520.935 1543.66 505.898 1555.01 488.329 C 1564.35 473.884 1581.04 476.539 1585.63 477.245 C 1581.9 470.866 1577.99 466.129 1573.15 465.499 C 1565.44 464.495 1558.79 469.484 1550.48 466.491 C 1535.69 461.168 1542.52 445.69 1565.56 437.527 C 1588.88 429.267 1591.7 434.87 1606.04 451.934 C 1612.71 459.885 1617.59 463.365 1620.71 465.388 C 1625.32 468.381 1627.98 473.772 1627.72 479.39" fill="#f48e5b" fill-rule="nonzero"/>
      <path d="M 1566.35 439.692 C 1588.31 431.992 1591.17 436.701 1604.67 452.609 C 1610.96 460.021 1615.35 463.778 1618.29 465.664 C 1622.63 468.455 1625.13 473.479 1624.9 478.717 C 1624.78 481.24 1624.31 483.928 1623.21 486.489 C 1623.11 488.068 1622.9 489.776 1622.56 491.638 C 1615.75 528.86 1575.23 528.506 1563.98 524.302 C 1546.56 517.786 1543.95 498.283 1558.07 484.756 C 1569.97 473.36 1587.14 480.061 1591.46 480.719 C 1587.95 474.773 1579.65 464.1 1575.1 463.514 C 1567.83 462.578 1559.6 466.966 1551.77 464.176 C 1537.84 459.212 1544.65 447.302 1566.35 439.692 Z" fill="#ffb680" fill-rule="nonzero"/>
      <path d="M 1621.12 437.675 C 1614.81 435.002 1609.13 426.039 1609.6 417.169 C 1609.63 416.719 1610.09 416.157 1610.24 416.856 C 1611.1 420.89 1611.74 424.638 1613.56 428.198 C 1615.51 431.999 1618.14 434.867 1621.22 437.054 C 1621.4 437.178 1621.36 437.778 1621.12 437.675 L 1621.12 437.675 Z" fill="#f48e5b" fill-rule="nonzero"/>
      <path d="M 1587.29 460.629 C 1581.58 463.911 1573.9 467.311 1567.16 465.486 C 1566.64 465.345 1566.68 464.242 1567.22 464.144 C 1570.41 463.56 1573.68 463.75 1576.89 463.121 C 1580.35 462.441 1583.93 461.483 1587.13 459.965 C 1587.5 459.792 1587.55 460.479 1587.29 460.629 L 1587.29 460.629 Z" fill="#f48e5b" fill-rule="nonzero"/>
  </g>
</svg>
